HIERARCHY
ROOT root
{
	OFFSET 0.000000 0.000000 0.000000
	CHANNELS 6 Xposition Yposition Zposition Zrotation Yrotation Xrotation
	JOINT lhip
	{
		OFFSET 0.058581 -0.082280 -0.017664
		CHANNELS 3 Zrotation Yrotation Xrotation
		JOINT lknee
		{
			OFFSET 0.043451 -0.386469 0.008037
			CHANNELS 3 Zrotation Yrotation Xrotation
			JOINT lankle
			{
				OFFSET -0.014790 -0.426874 -0.037428
				CHANNELS 3 Zrotation Yrotation Xrotation
				JOINT ltoe
				{
					OFFSET 0.041054 -0.060286 0.122042
					CHANNELS 3 Zrotation Yrotation Xrotation
					End Site
					{
						OFFSET 0.000000 0.000000 0.000000
					}
				}
			}
		}
	}
	JOINT rhip
	{
		OFFSET -0.060310 -0.090513 -0.013543
		CHANNELS 3 Zrotation Yrotation Xrotation
		JOINT rknee
		{
			OFFSET -0.043257 -0.383688 -0.004843
			CHANNELS 3 Zrotation Yrotation Xrotation
			JOINT rankle
			{
				OFFSET 0.019056 -0.420046 -0.034562
				CHANNELS 3 Zrotation Yrotation Xrotation
				JOINT rtoe
				{
					OFFSET -0.034840 -0.062106 0.130323
					CHANNELS 3 Zrotation Yrotation Xrotation
					End Site
					{
						OFFSET 0.000000 0.000000 0.000000
					}
				}
			}
		}
	}
	JOINT lowerback
	{
		OFFSET 0.004439 0.124404 -0.038385
		CHANNELS 3 Zrotation Yrotation Xrotation
		JOINT upperback
		{
			OFFSET 0.004488 0.137956 0.026820
			CHANNELS 3 Zrotation Yrotation Xrotation
			JOINT chest
			{
				OFFSET -0.002265 0.056032 0.002855
				CHANNELS 3 Zrotation Yrotation Xrotation
				JOINT lowerneck
				{
					OFFSET -0.013390 0.211636 -0.033468
					CHANNELS 3 Zrotation Yrotation Xrotation
					JOINT upperneck
					{
						OFFSET 0.010113 0.088937 0.050410
						CHANNELS 3 Zrotation Yrotation Xrotation
						End Site
						{
							OFFSET 0.000000 0.000000 0.000000
						}
					}
				}
				JOINT lclavicle
				{
					OFFSET 0.071702 0.114000 -0.018898
					CHANNELS 3 Zrotation Yrotation Xrotation
					JOINT lshoulder
					{
						OFFSET 0.122921 0.045205 -0.019046
						CHANNELS 3 Zrotation Yrotation Xrotation
						JOINT lelbow
						{
							OFFSET 0.255332 -0.015649 -0.022946
							CHANNELS 3 Zrotation Yrotation Xrotation
							JOINT lwrist
							{
								OFFSET 0.265709 0.012698 -0.007375
								CHANNELS 3 Zrotation Yrotation Xrotation
								End Site
								{
									OFFSET 0.000000 0.000000 0.000000
								}
							}
						}
					}
				}
				JOINT rclavicle
				{
					OFFSET -0.082954 0.112472 -0.023707
					CHANNELS 3 Zrotation Yrotation Xrotation
					JOINT rshoulder
					{
						OFFSET -0.113228 0.046853 -0.008472
						CHANNELS 3 Zrotation Yrotation Xrotation
						JOINT relbow
						{
							OFFSET -0.260127 -0.014369 -0.031269
							CHANNELS 3 Zrotation Yrotation Xrotation
							JOINT rwrist
							{
								OFFSET -0.269108 0.006794 -0.006027
								CHANNELS 3 Zrotation Yrotation Xrotation
								End Site
								{
									OFFSET 0.000000 0.000000 0.000000
								}
							}
						}
					}
				}
			}
		}
	}
}
MOTION
Frames: 16
Frame Time: 0.033333
-0.091221 0.817615 1.000029 25.946422 0.429652 80.838417 2.623794 0.274360 -8.769399 -4.394449 10.976615 -0.362442 -0.701542 21.118743 -9.246484 0.000000 -0.000000 0.000000 1.006767 -1.463294 10.797307 3.208076 3.228978 25.058294 3.931049 -7.773462 -20.625087 0.000000 -0.000000 0.000000 2.388256 2.457437 4.260640 -0.033450 -2.771579 11.552537 -2.680383 -2.304518 2.399642 3.344852 3.536678 -4.820059 -4.736700 3.103239 37.589727 -31.022851 0.643998 2.088763 -55.964242 -0.615944 7.661724 10.402006 -17.939395 -1.658606 -1.226960 -9.809073 -3.059840 26.291893 5.815130 -0.316587 47.496400 9.985589 17.353353 -3.379979 35.340500 7.479198 3.443600 10.084236 -10.430270 
-0.073305 0.796118 1.000510 25.577882 -0.040116 81.097031 2.503845 -0.163157 -7.831703 -5.283061 10.582942 0.129254 0.516968 21.927003 -6.131770 0.000000 -0.000000 0.000000 -0.179797 -0.824693 9.094063 3.403868 2.153629 30.535643 5.770995 -6.918228 -19.023395 0.000000 -0.000000 0.000000 0.978943 2.446635 4.149341 -0.017057 -2.570002 11.456463 -2.825273 -2.245824 2.620693 3.430375 4.133887 -4.895751 -4.732493 3.052211 37.772198 -30.931032 0.531234 1.975922 -55.562344 -1.497266 8.366865 10.477221 -18.330271 -2.390006 0.059229 -9.649007 -3.187395 26.883745 5.383389 -0.408074 47.750971 9.239367 18.225383 -3.140569 34.724990 7.652773 3.598673 9.963233 -9.461436 
-0.056157 0.777190 1.001963 25.540776 -0.568333 81.588261 1.817252 -0.859951 -7.270162 -5.956049 9.985364 0.714608 3.263741 22.497436 -4.787347 0.000000 -0.000000 0.000000 -1.765498 -0.110538 5.105061 3.862999 0.424791 38.747251 8.032121 -6.110887 -15.047644 0.000000 -0.000000 0.000000 -0.546848 2.161335 4.168197 0.004607 -2.252703 11.169159 -3.009823 -2.235930 2.908536 3.391488 4.470942 -4.905201 -4.667972 3.316521 37.716994 -30.567394 0.463304 1.978367 -55.156739 -2.586968 9.150105 10.918639 -19.738555 -3.456758 1.291004 -9.788035 -3.188717 27.291123 5.015048 -0.650758 48.488925 8.350673 19.352972 -3.546685 33.415322 6.466103 4.320018 9.774374 -7.998054 
-0.040696 0.760478 1.003368 25.684944 -0.860365 81.986435 1.097377 -1.455420 -6.655541 -6.077558 9.922725 1.072221 5.509810 22.794533 -4.328251 0.000000 -0.000000 0.000000 -2.963257 0.322274 -0.120034 4.005042 -0.820256 47.927552 9.253340 -6.300151 -8.643036 0.000000 -0.000000 0.000000 -1.860451 1.706133 4.610953 0.037390 -1.832494 11.011880 -3.122889 -2.302148 3.192235 3.030037 4.553118 -5.070102 -4.415941 3.828968 37.345307 -30.127475 0.244904 1.986373 -54.608662 -3.688358 9.792638 11.766321 -22.366249 -4.481728 1.835117 -9.655982 -3.512317 27.613248 4.850054 -0.855586 49.190777 7.663178 20.324790 -4.220822 31.887650 4.781159 5.669489 9.342634 -6.261656 
-0.027340 0.745583 1.004744 25.919048 -0.881597 82.052732 0.801014 -1.643234 -5.626550 -6.407832 9.486424 1.136827 7.135359 23.071446 -4.290357 0.000000 -0.000000 0.000000 -3.526407 0.918866 -4.872094 3.798015 -1.956128 55.729748 8.428943 -8.271317 -4.507129 0.000000 -0.000000 0.000000 -2.792610 1.010838 5.940244 -0.035826 -1.181702 10.612741 -3.230623 -2.336296 3.505683 2.555397 4.697651 -5.333812 -4.190997 4.154729 36.890131 -29.823608 -0.042844 2.122602 -53.449464 -4.870460 10.385491 12.697808 -26.222446 -5.327947 2.756431 -9.464091 -4.641789 28.123937 4.986346 -0.719661 49.485686 7.194379 21.002051 -4.730039 30.432638 3.449805 6.574053 8.913524 -5.106097 
-0.016121 0.732208 1.006829 26.302641 -0.618777 82.031332 0.875307 -1.726804 -4.742563 -6.754198 8.512127 1.496733 7.705837 23.715465 -5.008776 0.000000 -0.000000 0.000000 -3.607688 1.472854 -8.875841 2.533973 -3.754097 60.489337 6.557261 -11.587808 -6.407227 0.000000 -0.000000 0.000000 -3.300392 0.367942 7.421464 -0.179036 -0.557656 10.536498 -3.315986 -2.297022 3.795726 2.100401 5.078546 -5.540652 -4.201134 3.965102 36.387584 -29.612176 -0.629678 2.301658 -51.908056 -6.315829 10.982105 13.979231 -30.279953 -5.968111 4.049550 -9.347709 -6.142366 28.836909 5.600922 -0.208089 49.277672 6.976270 21.324591 -4.922107 28.955044 2.934424 6.269300 8.720572 -4.658563 
-0.006804 0.720607 1.010360 27.146775 0.145704 82.032862 1.335171 -1.502705 -4.107375 -6.771624 7.564451 2.061112 7.316984 23.697164 -6.003036 0.000000 -0.000000 0.000000 -3.146724 1.805659 -11.911704 1.117746 -5.400392 61.141518 5.049696 -13.374440 -10.024941 0.000000 -0.000000 0.000000 -3.167083 -0.349431 9.059376 -0.346938 -0.215014 10.719619 -3.297351 -2.196153 3.920081 1.486221 5.415722 -5.449757 -4.215900 3.478014 35.646927 -29.338818 -1.481932 2.376862 -50.646069 -7.859997 11.315274 15.905771 -34.226830 -6.978428 5.110506 -9.483259 -7.412570 29.271245 6.608470 0.508618 48.898585 7.046698 21.101162 -4.601797 27.304877 3.515686 5.765510 8.745837 -4.132856 
0.000858 0.710725 1.014353 28.370255 1.113371 82.316648 1.952043 -1.252965 -3.843139 -6.586085 6.774673 2.479801 6.669726 23.136501 -6.856385 0.000000 -0.000000 0.000000 -2.635378 2.188844 -14.333335 0.669265 -6.700380 58.094427 4.944360 -13.758086 -12.958495 0.000000 -0.000000 0.000000 -2.760303 -1.077941 10.671516 -0.457579 -0.021601 11.008258 -3.181524 -2.094364 3.879733 0.825531 5.542037 -5.175323 -4.160540 2.828693 34.702333 -28.772155 -2.280770 2.494124 -50.028892 -9.442862 11.621134 18.580942 -38.166308 -8.732184 5.748784 -9.748476 -8.510589 29.361459 7.637732 1.229832 48.504554 7.453781 20.706191 -4.112708 25.713366 4.497760 6.364041 8.686058 -3.008500 
0.006717 0.702971 1.017371 29.879043 2.079106 83.124502 2.646940 -1.235971 -4.362300 -6.491045 5.992035 2.902939 6.277713 22.492555 -7.523382 0.000000 -0.000000 0.000000 -2.243830 2.495513 -16.761981 0.983223 -7.503276 52.493762 4.940271 -14.763095 -14.589614 0.000000 -0.000000 0.000000 -2.333350 -1.703429 12.086142 -0.430393 0.101701 11.197500 -2.925834 -2.040654 3.957350 0.109401 5.324404 -5.273222 -4.014969 2.280936 33.793789 -27.981496 -2.860432 2.598423 -49.870075 -11.106294 12.160612 21.667771 -42.383947 -10.920360 6.741334 -9.724004 -9.887032 29.199088 8.629692 1.848719 47.977145 8.237051 20.548055 -3.834898 24.529884 5.113796 7.061695 8.534035 -1.810012 
0.010944 0.696987 1.019163 31.642218 2.982501 84.148964 3.305472 -1.113469 -5.451833 -6.411029 5.199723 3.623850 5.882476 21.564701 -8.239880 0.000000 -0.000000 0.000000 -2.015808 2.380538 -18.908199 1.483660 -7.666216 45.640012 4.743755 -14.774203 -15.463235 0.000000 -0.000000 0.000000 -1.827828 -2.117097 13.755858 -0.360376 0.068463 11.196140 -2.534038 -1.978836 4.102977 -0.595776 5.031292 -5.590994 -3.795471 1.581002 32.767389 -27.115996 -3.489160 2.583503 -49.872570 -12.564049 12.776377 25.037822 -46.769366 -13.168073 7.644447 -9.779555 -11.572738 28.898313 9.698422 2.398323 47.211149 9.248746 20.130260 -3.635907 23.859917 5.568147 7.356197 8.457969 -1.148648 
0.013746 0.691556 1.019661 33.294216 3.578721 85.296782 3.778238 -0.802674 -7.010511 -6.359592 4.520103 4.860365 5.436900 20.543581 -9.205388 0.000000 -0.000000 0.000000 -2.005817 2.104871 -20.708077 2.183893 -6.790301 38.918243 5.123020 -12.688735 -16.219719 0.000000 -0.000000 0.000000 -1.288202 -2.073447 15.631361 -0.370440 0.077530 11.180243 -2.186695 -1.850359 3.955800 -1.210269 4.756884 -5.573969 -3.518540 0.427635 31.504082 -26.347836 -4.267620 2.541684 -49.547139 -13.513707 13.318623 28.455465 -51.333571 -15.481584 8.171979 -10.136708 -12.955544 28.695131 10.750889 2.978137 46.319289 10.240904 19.197148 -3.525572 23.576469 5.677888 7.129369 8.433871 -0.928285 
0.015370 0.686764 1.019249 34.943847 3.917278 86.460232 4.094042 -0.828304 -9.096933 -6.331721 3.997328 6.934455 5.122843 19.670894 -10.326575 0.000000 -0.000000 0.000000 -2.064244 1.750964 -22.333960 2.238315 -5.731589 33.538659 5.489359 -11.579276 -15.943373 0.000000 -0.000000 0.000000 -0.632650 -1.816322 17.751488 -0.398067 0.259433 11.116807 -1.917447 -1.609438 3.782975 -1.929012 4.066411 -5.606392 -3.202455 -0.785935 30.344865 -25.700213 -5.092401 2.326638 -49.121509 -14.378461 14.034347 31.628262 -55.516278 -17.376078 9.231013 -10.275368 -13.817449 28.466449 11.852507 3.355077 45.370958 11.196858 18.296591 -3.821804 23.497173 4.951352 6.647704 8.404035 -1.140717 
0.016181 0.683049 1.018668 37.003922 4.121944 87.461140 4.238402 -1.346023 -11.506130 -6.212932 3.618070 9.781188 4.857425 18.701288 -11.566767 0.000000 -0.000000 0.000000 -2.232937 0.887430 -23.366280 1.469913 -5.901111 29.473095 5.629001 -11.261212 -12.914468 0.000000 -0.000000 0.000000 0.458092 -1.607447 20.567285 -0.490285 0.449672 10.720781 -1.722026 -1.286966 3.694154 -2.821548 2.709195 -5.779258 -2.737435 -2.045250 29.213975 -25.075628 -5.937704 1.903141 -49.126724 -15.210152 14.830248 34.507415 -58.932425 -18.408383 9.996809 -10.536958 -14.274092 28.009518 12.999157 3.466780 44.371093 12.073962 17.242885 -4.323441 23.609959 3.795010 5.870590 8.420938 -1.917343 
0.016487 0.680139 1.016992 39.331354 4.105059 88.396466 4.218150 -2.084806 -13.803719 -6.227496 3.305066 12.429170 4.766145 17.664267 -12.728489 0.000000 -0.000000 0.000000 -2.872697 -0.072387 -24.024412 1.415656 -6.624366 26.936676 6.487994 -10.078994 -8.250903 0.000000 -0.000000 0.000000 1.758385 -1.511942 23.544213 -0.550116 0.681834 10.715336 -1.506773 -0.880263 3.408057 -3.774623 0.918128 -5.815451 -2.184997 -3.290908 27.581362 -24.571950 -7.012092 1.454106 -49.434777 -15.540100 15.615725 37.631657 -61.841283 -20.261849 10.372924 -10.813301 -14.247983 27.217289 14.456674 3.627591 43.059700 12.913945 15.858921 -4.931028 24.038113 1.945781 5.120993 8.385194 -2.437554 
0.015343 0.676935 1.013352 41.563189 3.873376 89.484527 4.157323 -2.583719 -16.305286 -6.365637 3.143603 15.001991 4.825882 16.446624 -13.832171 0.000000 -0.000000 0.000000 -3.296561 -1.009504 -25.036538 1.330106 -7.071211 26.737085 6.000781 -9.568885 -5.767822 0.000000 -0.000000 0.000000 2.849462 -1.281456 26.253935 -0.462590 1.041268 11.015042 -1.109316 -0.396076 3.133720 -4.550340 -1.041148 -5.745441 -1.662565 -4.457045 25.582039 -24.197682 -8.154081 1.242117 -50.185608 -15.464085 16.251415 41.375398 -64.020922 -23.154008 10.978845 -10.800596 -14.658642 26.224684 16.292125 4.022650 41.202212 13.738300 14.117085 -5.664432 24.817105 0.122655 4.632636 8.451804 -2.664973 
0.013065 0.673486 1.008289 43.637238 3.290964 90.632710 3.865140 -2.982229 -19.130666 -6.649140 2.955591 17.893075 4.851556 15.453386 -14.949424 0.000000 -0.000000 0.000000 -3.634113 -1.801378 -26.290097 0.557595 -7.790217 28.010975 4.957564 -9.567968 -6.575658 0.000000 -0.000000 0.000000 3.620307 -1.015753 29.039520 -0.396434 1.510396 11.132633 -0.714208 0.236874 3.032501 -4.825400 -2.880148 -5.656069 -1.234919 -5.911578 23.481380 -24.185078 -9.127121 1.239180 -50.593398 -15.025697 16.556952 44.360834 -65.758359 -25.941999 11.393720 -10.825561 -15.377512 25.366276 18.188175 4.479880 38.630842 14.615807 12.079027 -6.146333 25.798233 -1.297225 3.976950 8.649729 -2.694302 
